<?xml version="1.0" encoding="UTF-8"?>
<svg version="1.1" xmlns="http://www.w3.org/2000/svg" width="150" height="150">
<path d="M0 0 C2.5625 0.1875 2.5625 0.1875 4.5625 2.1875 C5.16013547 4.7555238 5.64979657 7.2700314 6.078125 9.8671875 C6.28280647 11.04977646 6.28280647 11.04977646 6.49162292 12.2562561 C6.93967479 14.85707462 7.37617899 17.45969 7.8125 20.0625 C8.11924424 21.85752944 8.42662364 23.65245045 8.73461914 25.44726562 C9.68880582 31.02541582 10.62658771 36.60625947 11.5625 42.1875 C11.86629917 43.99382764 12.17017165 45.80014295 12.47412109 47.60644531 C14.18741873 57.79730643 15.88327968 67.99096838 17.5625 78.1875 C19.24521469 69.62251205 20.77867558 61.05241117 22.0625 52.41796875 C22.1860083 51.59555695 22.3095166 50.77314514 22.43676758 49.92581177 C22.94419064 46.54163129 23.44986483 43.15735979 23.9375 39.77026367 C24.3012969 37.25518604 24.68054016 34.74284304 25.0625 32.23046875 C25.22202148 31.08217842 25.22202148 31.08217842 25.38476562 29.91069031 C25.84439024 26.95431372 26.24232186 24.63739608 27.99609375 22.1730957 C29.5625 21.1875 29.5625 21.1875 32.125 21.375 C34.5625 22.1875 34.5625 22.1875 36.5625 24.1875 C37.23266602 26.69360352 37.23266602 26.69360352 37.81640625 29.81640625 C38.13834961 31.49186523 38.13834961 31.49186523 38.46679688 33.20117188 C38.79260742 34.9578418 38.79260742 34.9578418 39.125 36.75 C39.56046375 39.06443269 39.99909136 41.37827312 40.44140625 43.69140625 C40.6329126 44.72080322 40.82441895 45.7502002 41.02172852 46.81079102 C41.32753607 49.13007161 41.32753607 49.13007161 42.5625 50.1875 C43.119375 48.95 43.119375 48.95 43.6875 47.6875 C45.5625 45.1875 45.5625 45.1875 48.4375 44.4375 C52.49024796 45.41015951 53.46752564 47.08008635 55.6796875 50.4609375 C56.5625 52.1875 56.5625 52.1875 56.5625 54.1875 C57.17193451 54.18305878 57.78136902 54.17861755 58.40927124 54.17404175 C64.73538882 54.12989593 71.06146285 54.09967013 77.38769531 54.07763672 C79.75066911 54.06756076 82.11363039 54.05389971 84.4765625 54.03662109 C87.86721888 54.01244276 91.25771084 54.00103301 94.6484375 53.9921875 C95.70993011 53.98186493 96.77142273 53.97154236 97.86508179 53.96090698 C99.33638046 53.96068039 99.33638046 53.96068039 100.83740234 53.96044922 C101.70344086 53.956008 102.56947937 53.95156677 103.46176147 53.94699097 C105.5625 54.1875 105.5625 54.1875 107.5625 56.1875 C107.19568342 59.12203261 106.69812754 60.05187246 104.5625 62.1875 C102.45071411 62.44819641 102.45071411 62.44819641 99.80908203 62.4621582 C98.82110626 62.47169022 97.83313049 62.48122223 96.81521606 62.49104309 C95.2089888 62.48967598 95.2089888 62.48967598 93.5703125 62.48828125 C91.92408401 62.49470894 91.92408401 62.49470894 90.24459839 62.50126648 C87.91942028 62.50701793 85.59422416 62.50750407 83.26904297 62.50317383 C79.70899727 62.50001905 76.14978629 62.52344573 72.58984375 62.54882812 C70.33333438 62.55110152 68.07682278 62.55180443 65.8203125 62.55078125 C64.75354279 62.559991 63.68677307 62.56920074 62.587677 62.57868958 C61.59339691 62.57246078 60.59911682 62.56623199 59.57470703 62.55981445 C58.70137726 62.56044388 57.82804749 62.5610733 56.92825317 62.5617218 C54.05742308 62.10760545 52.65602525 61.17551758 50.5625 59.1875 C50.5625 58.5275 50.5625 57.8675 50.5625 57.1875 C49.9025 57.1875 49.2425 57.1875 48.5625 57.1875 C48.38074219 57.80238281 48.19898437 58.41726562 48.01171875 59.05078125 C47.76035156 59.85902344 47.50898437 60.66726562 47.25 61.5 C47.00636719 62.30050781 46.76273437 63.10101563 46.51171875 63.92578125 C45.4637913 66.42269481 44.84623083 67.71038492 42.5625 69.1875 C39.375 68.875 39.375 68.875 36.5625 68.1875 C36.36914062 67.39085938 36.17578125 66.59421875 35.9765625 65.7734375 C35.71617188 64.71382813 35.45578125 63.65421875 35.1875 62.5625 C34.93226562 61.51835938 34.67703125 60.47421875 34.4140625 59.3984375 C33.58594553 56.27590469 32.59715974 53.24665641 31.5625 50.1875 C31.46893723 50.84038498 31.37537445 51.49326996 31.27897644 52.16593933 C30.30241665 58.96490477 29.31036985 65.76148198 28.30932617 72.55688477 C27.93783827 75.09276399 27.57029435 77.62922426 27.20678711 80.16625977 C26.68339923 83.81426616 26.1458321 87.45994317 25.60546875 91.10546875 C25.44596237 92.23897263 25.28645599 93.3724765 25.12211609 94.54032898 C24.96217667 95.60105118 24.80223724 96.66177338 24.63745117 97.75463867 C24.43426521 99.15029305 24.43426521 99.15029305 24.22697449 100.57414246 C23.46607735 103.5667273 22.36798733 105.68843064 20.5625 108.1875 C18.0625 108.8125 18.0625 108.8125 15.5625 108.1875 C12.66974585 104.32616347 11.88783897 100.72264575 11.12036133 96.01049805 C11.0028804 95.30751083 10.88539948 94.60452362 10.76435852 93.88023376 C10.3810577 91.57141961 10.01272244 89.26048627 9.64453125 86.94921875 C9.38069783 85.34195555 9.11592907 83.73484562 8.8502655 82.12788391 C8.15542063 77.90931033 7.47326581 73.68878041 6.79376221 69.4677124 C6.09739658 65.15625408 5.3890091 60.84677361 4.68164062 56.53710938 C3.29684194 48.08912561 1.92544765 39.63903646 0.5625 31.1875 C0.45180176 32.05552246 0.34110352 32.92354492 0.22705078 33.81787109 C-0.18738142 37.03543475 -0.60940412 40.25188435 -1.03662109 43.46777344 C-1.22001621 44.86027794 -1.40037313 46.25318607 -1.57763672 47.64648438 C-1.8328373 49.64816938 -2.09984742 51.64833763 -2.3671875 53.6484375 C-2.52429199 54.85290527 -2.68139648 56.05737305 -2.84326172 57.29833984 C-3.4375 60.1875 -3.4375 60.1875 -5.4375 62.1875 C-7.56054687 62.44628906 -7.56054687 62.44628906 -10.15625 62.453125 C-11.08824219 62.45570312 -12.02023438 62.45828125 -12.98046875 62.4609375 C-13.95628906 62.45320313 -14.93210937 62.44546875 -15.9375 62.4375 C-17.40123047 62.44910156 -17.40123047 62.44910156 -18.89453125 62.4609375 C-19.82652344 62.45835938 -20.75851563 62.45578125 -21.71875 62.453125 C-22.57533203 62.45086914 -23.43191406 62.44861328 -24.31445312 62.44628906 C-26.4375 62.1875 -26.4375 62.1875 -28.4375 60.1875 C-27.90178571 56.65178571 -27.90178571 56.65178571 -26.4375 55.1875 C-23.90700598 55.11436433 -21.40445163 55.09502473 -18.875 55.125 C-18.16408203 55.12951172 -17.45316406 55.13402344 -16.72070312 55.13867188 C-14.95959987 55.15049136 -13.19853964 55.16842737 -11.4375 55.1875 C-11.36677277 54.58472733 -11.29604553 53.98195465 -11.22317505 53.36091614 C-10.48504972 47.08197192 -9.73726562 40.8042315 -8.98388672 34.52709961 C-8.70406691 32.18494618 -8.42670322 29.84249795 -8.15185547 27.49975586 C-7.75614937 24.13053987 -7.35159472 20.76248619 -6.9453125 17.39453125 C-6.8243924 16.34852249 -6.70347229 15.30251373 -6.57888794 14.22480774 C-6.45891449 13.24416855 -6.33894104 12.26352936 -6.21533203 11.25317383 C-6.1131839 10.39379715 -6.01103577 9.53442047 -5.90579224 8.64900208 C-4.32362298 0.33258638 -4.32362298 0.33258638 0 0 Z " fill="#E05A63" transform="translate(35.4375,20.8125)"/>
</svg>
